<svg width="15" height="17" viewBox="0 0 15 17" fill="none" xmlns="http://www.w3.org/2000/svg">
<path fill-rule="evenodd" clip-rule="evenodd" d="M0.910145 15.8413C0.910145 16.3437 1.31599 16.7495 1.81834 16.7495H6.3593V9.09463H0.910145V15.8413ZM8.17568 16.7495H12.7166C13.219 16.7495 13.6248 16.3437 13.6248 15.8413V9.09463H8.17568V16.7495ZM13.6248 4.55367H12.43C12.606 4.21026 12.7166 3.82995 12.7166 3.41843C12.7166 2.04195 11.5956 0.920898 10.2191 0.920898C9.03846 0.920898 8.27501 1.52541 7.29587 2.85932C6.31673 1.52541 5.55328 0.920898 4.37263 0.920898C2.99615 0.920898 1.8751 2.04195 1.8751 3.41843C1.8751 3.82995 1.98295 4.21026 2.16175 4.55367H0.910145C0.407801 4.55367 0.00195312 4.95951 0.00195312 5.46186V7.73234C0.00195312 7.98209 0.206296 8.18644 0.456049 8.18644H14.0789C14.3287 8.18644 14.533 7.98209 14.533 7.73234V5.46186C14.533 4.95951 14.1272 4.55367 13.6248 4.55367ZM4.36979 4.55367C3.74257 4.55367 3.23455 4.04565 3.23455 3.41843C3.23455 2.79121 3.74257 2.28319 4.36979 2.28319C4.93457 2.28319 5.35177 2.37684 6.81339 4.55367H4.36979H4.36979ZM10.2191 4.55367H7.77551C9.23429 2.38252 9.64014 2.28319 10.2191 2.28319C10.8463 2.28319 11.3544 2.79121 11.3544 3.41843C11.3544 4.04565 10.8463 4.55367 10.2191 4.55367Z" fill="#004CFF"/>
</svg>
