<svg width="19" height="14" viewBox="0 0 19 14" fill="none" xmlns="http://www.w3.org/2000/svg">
<path d="M18.0778 5.56344L11.601 0.191724C11.523 0.126613 11.4495 0.0899874 11.344 0.0940567C11.142 0.102195 10.8849 0.22835 10.8849 0.419616V3.11361C10.8849 3.195 10.8115 3.26825 10.7197 3.28046C4.27962 4.1554 1.5668 8.42836 0.607449 12.8641C0.570727 13.0391 0.836959 13.2019 0.960895 13.0635C3.31109 10.4387 6.17079 8.72543 10.6922 8.69288C10.7931 8.69288 10.8849 8.79868 10.8849 8.88821V11.5334C10.8849 11.8182 11.3118 11.9444 11.5505 11.7491L18.0732 6.28374C18.1926 6.18607 18.2293 6.07213 18.2339 5.9419C18.2293 5.81168 18.1926 5.66111 18.0778 5.56344Z" fill="#B5A2A2"/>
</svg>
