<svg width="26" height="20" viewBox="0 0 26 20" fill="none" xmlns="http://www.w3.org/2000/svg">
<g clip-path="url(#clip0_0_1752)">
<path d="M20.3456 19.992H5.56533C5.37421 19.992 5.21912 19.8373 5.21912 19.6458V8.21512L4.10018 9.33406C3.97033 9.46391 3.74045 9.46391 3.61065 9.33406L0.101523 5.82528C-0.0338409 5.68992 -0.0338409 5.47112 0.101523 5.33575L5.28735 0.149925C5.35036 0.0606308 5.45178 0 5.56568 0H9.08972C9.28084 0 9.43593 0.15509 9.43593 0.34621C9.43593 2.28703 11.015 3.86607 12.9558 3.86607C14.8966 3.86607 16.4757 2.28703 16.4757 0.34621C16.4757 0.15509 16.6304 0 16.8219 0H20.3459C20.4723 0 20.583 0.0678825 20.6433 0.168957L25.8098 5.33575C25.8749 5.40086 25.9112 5.48876 25.9112 5.58055C25.9112 5.67234 25.8748 5.76059 25.8098 5.82534L22.3003 9.33412C22.1649 9.46948 21.9461 9.46948 21.8108 9.33412L20.6918 8.21518V19.6458C20.6917 19.8373 20.5366 19.992 20.3456 19.992Z" fill="#004CFF"/>
</g>
<defs>
<clipPath id="clip0_0_1752">
<rect width="25.9112" height="19.992" fill="white"/>
</clipPath>
</defs>
</svg>
