<svg width="75" height="19" viewBox="0 0 75 19" fill="none" xmlns="http://www.w3.org/2000/svg">
<path d="M4.54516 0.533539L7.67508 9.68775L10.7817 0.533539H14.4288L9.01674 14.1121H6.31011L0.897461 0.533539H4.54516Z" fill="white"/>
<path d="M26.7589 4.41657C26.7589 5.49934 25.9117 6.25207 24.9234 6.25207C23.9351 6.25207 23.0879 5.49934 23.0879 4.41657C23.0879 3.33379 23.9351 2.58106 24.9234 2.58106C25.9117 2.58106 26.7589 3.33379 26.7589 4.41657ZM22.5228 11.9236C24.8056 11.9236 26.1 10.8175 27.3239 9.21759C27.9827 8.34646 28.8532 8.18205 29.4416 8.65258C30.0771 9.14642 30.1004 10.0409 29.4416 10.912C27.6766 13.2653 25.4172 14.6775 22.5228 14.6775C19.3696 14.6775 16.663 12.9358 14.7097 9.947C14.1686 9.17035 14.3097 8.27591 14.8986 7.85261C15.5336 7.40539 16.4047 7.59373 16.9691 8.44093C18.3813 10.512 20.1929 11.9236 22.5228 11.9236Z" fill="white"/>
<path d="M35.4413 7.28772C35.4413 10.0643 37.0412 11.5237 38.8301 11.5237C40.5245 11.5237 42.2661 10.1588 42.2661 7.28772C42.2661 4.4633 40.5245 3.09894 38.8534 3.09894C37.0412 3.09894 35.4413 4.39337 35.4413 7.28772ZM35.4413 0.557336V2.41615C36.359 1.14565 37.7945 0.180664 39.8889 0.180664C42.5244 0.180664 45.6077 2.39284 45.6077 7.1227C45.6077 12.0648 42.6422 14.4653 39.6067 14.4653C37.9829 14.4653 36.5473 13.8298 35.4413 12.3237V18.8185H32.123V0.557336H35.4413Z" fill="white"/>
<path d="M51.3714 7.28772C51.3714 10.0643 52.9714 11.5237 54.7602 11.5237C56.4546 11.5237 58.1963 10.1588 58.1963 7.28772C58.1963 4.4633 56.4546 3.09894 54.7835 3.09894C52.9714 3.09894 51.3714 4.39337 51.3714 7.28772ZM51.3714 0.557336V2.41615C52.2892 1.14565 53.7247 0.180664 55.8191 0.180664C58.4546 0.180664 61.5379 2.39284 61.5379 7.1227C61.5379 12.0648 58.5723 14.4653 55.5369 14.4653C53.913 14.4653 52.4775 13.8298 51.3714 12.3237V18.8185H48.0532V0.557336H51.3714Z" fill="white"/>
<path d="M68.5486 0.180734C71.2785 0.180734 73.2784 1.45123 74.1023 4.65232L71.1141 5.12285C71.0669 3.499 70.0546 3.00454 68.6191 3.00454C67.4897 3.00454 66.6658 3.499 66.6658 4.27565C66.6658 4.88728 67.0897 5.52283 68.3602 5.75779L70.643 6.1817C72.8791 6.60561 74.079 8.06444 74.079 10.0644C74.079 13.0066 71.4196 14.4654 68.9252 14.4654C66.2892 14.4654 63.3715 13.1004 62.9004 9.78216L65.8898 9.31163C66.0542 11.0293 67.1131 11.6416 68.8075 11.6416C70.1019 11.6416 70.9724 11.1711 70.9724 10.3472C70.9724 9.61775 70.5724 9.07606 69.1608 8.81717L67.0897 8.4405C64.9009 8.04113 63.5598 6.48783 63.5598 4.51061C63.5598 1.45123 66.337 0.180734 68.5486 0.180734Z" fill="white"/>
</svg>
